name rise49.5252peak65.1548fall88.8305.mot
datacolumns 19
datarows 30
range 12.46661600000000 12.51494600000000
endheader
time	ground_force1_vx	ground_force1_vy	ground_force1_vz	ground_force1_px	ground_force1_py	ground_force1_pz	ground_force2_vx	ground_force2_vy	ground_force2_vz	ground_force2_px	ground_force2_py	ground_force2_pz	ground_torque1_x	ground_torque1_y	ground_torque1_z	ground_torque2_x	ground_torque2_y	ground_torque2_z	
12.46661600000000	7.19227700000000	714.70471999999995	44.75956300000000	0.28818800000000	0.00000000000000	0.08267500000000	0.00000000000000	0.00000000000000	0.00000000000000	0.00000000000000	0.00000000000000	0.00000000000000	0.00000000000000	24.20585000000000	0.00000000000000	0.00000000000000	0.00000000000000	0.00000000000000	
12.46828200000000	6.72726000000000	715.40790400000003	44.79591200000000	0.28712200000000	0.00000000000000	0.08264800000000	0.00000000000000	0.00000000000000	0.00000000000000	0.00000000000000	0.00000000000000	0.00000000000000	0.00000000000000	24.24554100000000	0.00000000000000	0.00000000000000	0.00000000000000	0.00000000000000	
12.46994400000000	6.25879400000000	716.14767800000004	44.83292400000000	0.28605700000000	0.00000000000000	0.08261800000000	0.00000000000000	0.00000000000000	0.00000000000000	0.00000000000000	0.00000000000000	0.00000000000000	0.00000000000000	24.28716700000000	0.00000000000000	0.00000000000000	0.00000000000000	0.00000000000000	
12.47161700000000	5.78695100000000	716.92285000000004	44.87048100000000	0.28499200000000	0.00000000000000	0.08258600000000	0.00000000000000	0.00000000000000	0.00000000000000	0.00000000000000	0.00000000000000	0.00000000000000	0.00000000000000	24.33066200000000	0.00000000000000	0.00000000000000	0.00000000000000	0.00000000000000	
12.47328500000000	5.31181100000000	717.73223900000005	44.90847600000000	0.28392800000000	0.00000000000000	0.08255300000000	0.00000000000000	0.00000000000000	0.00000000000000	0.00000000000000	0.00000000000000	0.00000000000000	0.00000000000000	24.37596600000000	0.00000000000000	0.00000000000000	0.00000000000000	0.00000000000000	
12.47495400000000	4.83345700000000	718.57467899999995	44.94681500000000	0.28286700000000	0.00000000000000	0.08251700000000	0.00000000000000	0.00000000000000	0.00000000000000	0.00000000000000	0.00000000000000	0.00000000000000	0.00000000000000	24.42301900000000	0.00000000000000	0.00000000000000	0.00000000000000	0.00000000000000	
12.47661200000000	4.35198100000000	719.44902200000001	44.98541000000000	0.28180900000000	0.00000000000000	0.08247900000000	0.00000000000000	0.00000000000000	0.00000000000000	0.00000000000000	0.00000000000000	0.00000000000000	0.00000000000000	24.47176500000000	0.00000000000000	0.00000000000000	0.00000000000000	0.00000000000000	
12.47828500000000	3.86747800000000	720.35413700000004	45.02418700000000	0.28075400000000	0.00000000000000	0.08243800000000	0.00000000000000	0.00000000000000	0.00000000000000	0.00000000000000	0.00000000000000	0.00000000000000	0.00000000000000	24.52214900000000	0.00000000000000	0.00000000000000	0.00000000000000	0.00000000000000	
12.47995100000000	3.38004900000000	721.28891399999998	45.06308200000000	0.27970400000000	0.00000000000000	0.08239600000000	0.00000000000000	0.00000000000000	0.00000000000000	0.00000000000000	0.00000000000000	0.00000000000000	0.00000000000000	24.57411900000000	0.00000000000000	0.00000000000000	0.00000000000000	0.00000000000000	
12.48161600000000	2.88979900000000	722.25226199999997	45.10204200000000	0.27865800000000	0.00000000000000	0.08235200000000	0.00000000000000	0.00000000000000	0.00000000000000	0.00000000000000	0.00000000000000	0.00000000000000	0.00000000000000	24.62762500000000	0.00000000000000	0.00000000000000	0.00000000000000	0.00000000000000	
12.48328500000000	2.39683400000000	723.24311399999999	45.14102200000000	0.27761700000000	0.00000000000000	0.08230500000000	0.00000000000000	0.00000000000000	0.00000000000000	0.00000000000000	0.00000000000000	0.00000000000000	0.00000000000000	24.68261900000000	0.00000000000000	0.00000000000000	0.00000000000000	0.00000000000000	
12.48494800000000	1.90126800000000	724.26042299999995	45.17999100000000	0.27658300000000	0.00000000000000	0.08225700000000	0.00000000000000	0.00000000000000	0.00000000000000	0.00000000000000	0.00000000000000	0.00000000000000	0.00000000000000	24.73905700000000	0.00000000000000	0.00000000000000	0.00000000000000	0.00000000000000	
12.48661600000000	1.40321200000000	725.30316300000004	45.21892700000000	0.27555400000000	0.00000000000000	0.08220600000000	0.00000000000000	0.00000000000000	0.00000000000000	0.00000000000000	0.00000000000000	0.00000000000000	0.00000000000000	24.79689300000000	0.00000000000000	0.00000000000000	0.00000000000000	0.00000000000000	
12.48828500000000	0.90278200000000	726.37033199999996	45.25781900000000	0.27453200000000	0.00000000000000	0.08215400000000	0.00000000000000	0.00000000000000	0.00000000000000	0.00000000000000	0.00000000000000	0.00000000000000	0.00000000000000	24.85608600000000	0.00000000000000	0.00000000000000	0.00000000000000	0.00000000000000	
12.48994900000000	0.40009400000000	727.46094500000004	45.29666400000000	0.27351700000000	0.00000000000000	0.08209900000000	0.00000000000000	0.00000000000000	0.00000000000000	0.00000000000000	0.00000000000000	0.00000000000000	0.00000000000000	24.91659500000000	0.00000000000000	0.00000000000000	0.00000000000000	0.00000000000000	
12.49161600000000	-0.10473500000000	728.57403899999997	45.33547400000000	0.27250900000000	0.00000000000000	0.08204300000000	0.00000000000000	0.00000000000000	0.00000000000000	0.00000000000000	0.00000000000000	0.00000000000000	0.00000000000000	24.97838200000000	0.00000000000000	0.00000000000000	0.00000000000000	0.00000000000000	
12.49327700000000	-0.61158800000000	729.70866799999999	45.37426600000000	0.27150900000000	0.00000000000000	0.08198500000000	0.00000000000000	0.00000000000000	0.00000000000000	0.00000000000000	0.00000000000000	0.00000000000000	0.00000000000000	25.04140800000000	0.00000000000000	0.00000000000000	0.00000000000000	0.00000000000000	
12.49494900000000	-1.12034900000000	730.86390300000005	45.41306900000000	0.27051700000000	0.00000000000000	0.08192500000000	0.00000000000000	0.00000000000000	0.00000000000000	0.00000000000000	0.00000000000000	0.00000000000000	0.00000000000000	25.10563700000000	0.00000000000000	0.00000000000000	0.00000000000000	0.00000000000000	
12.49661500000000	-1.63090100000000	732.03883099999996	45.45192200000000	0.26953300000000	0.00000000000000	0.08186300000000	0.00000000000000	0.00000000000000	0.00000000000000	0.00000000000000	0.00000000000000	0.00000000000000	0.00000000000000	25.17103200000000	0.00000000000000	0.00000000000000	0.00000000000000	0.00000000000000	
12.49827900000000	-2.14313200000000	733.23254999999995	45.49087200000000	0.26855700000000	0.00000000000000	0.08180000000000	0.00000000000000	0.00000000000000	0.00000000000000	0.00000000000000	0.00000000000000	0.00000000000000	0.00000000000000	25.23756000000000	0.00000000000000	0.00000000000000	0.00000000000000	0.00000000000000	
12.49995100000000	-2.65692800000000	734.44417199999998	45.52997600000000	0.26759000000000	0.00000000000000	0.08173500000000	0.00000000000000	0.00000000000000	0.00000000000000	0.00000000000000	0.00000000000000	0.00000000000000	0.00000000000000	25.30518600000000	0.00000000000000	0.00000000000000	0.00000000000000	0.00000000000000	
12.50161100000000	-3.17218100000000	735.67281600000001	45.56930000000000	0.26663100000000	0.00000000000000	0.08166900000000	0.00000000000000	0.00000000000000	0.00000000000000	0.00000000000000	0.00000000000000	0.00000000000000	0.00000000000000	25.37387600000000	0.00000000000000	0.00000000000000	0.00000000000000	0.00000000000000	
12.50328300000000	-3.68878300000000	736.91760599999998	45.60891700000000	0.26568100000000	0.00000000000000	0.08160100000000	0.00000000000000	0.00000000000000	0.00000000000000	0.00000000000000	0.00000000000000	0.00000000000000	0.00000000000000	25.44359700000000	0.00000000000000	0.00000000000000	0.00000000000000	0.00000000000000	
12.50495200000000	-4.20663100000000	738.17767200000003	45.64891100000000	0.26473900000000	0.00000000000000	0.08153300000000	0.00000000000000	0.00000000000000	0.00000000000000	0.00000000000000	0.00000000000000	0.00000000000000	0.00000000000000	25.51431400000000	0.00000000000000	0.00000000000000	0.00000000000000	0.00000000000000	
12.50661700000000	-4.72562400000000	739.45214499999997	45.68937000000000	0.26380600000000	0.00000000000000	0.08146300000000	0.00000000000000	0.00000000000000	0.00000000000000	0.00000000000000	0.00000000000000	0.00000000000000	0.00000000000000	25.58599600000000	0.00000000000000	0.00000000000000	0.00000000000000	0.00000000000000	
12.50828600000000	-5.24566600000000	740.74015499999996	45.73039300000000	0.26288100000000	0.00000000000000	0.08139100000000	0.00000000000000	0.00000000000000	0.00000000000000	0.00000000000000	0.00000000000000	0.00000000000000	0.00000000000000	25.65860700000000	0.00000000000000	0.00000000000000	0.00000000000000	0.00000000000000	
12.50994300000000	-5.76666400000000	742.04082700000004	45.77208200000000	0.26196500000000	0.00000000000000	0.08131900000000	0.00000000000000	0.00000000000000	0.00000000000000	0.00000000000000	0.00000000000000	0.00000000000000	0.00000000000000	25.73211500000000	0.00000000000000	0.00000000000000	0.00000000000000	0.00000000000000	
12.51162100000000	-6.28852900000000	743.35328100000004	45.81455000000000	0.26105700000000	0.00000000000000	0.08124600000000	0.00000000000000	0.00000000000000	0.00000000000000	0.00000000000000	0.00000000000000	0.00000000000000	0.00000000000000	25.80648400000000	0.00000000000000	0.00000000000000	0.00000000000000	0.00000000000000	
12.51328300000000	-6.81117800000000	744.67662700000005	45.85791300000000	0.26015700000000	0.00000000000000	0.08117200000000	0.00000000000000	0.00000000000000	0.00000000000000	0.00000000000000	0.00000000000000	0.00000000000000	0.00000000000000	25.88168100000000	0.00000000000000	0.00000000000000	0.00000000000000	0.00000000000000	
12.51494600000000	-7.33453000000000	746.00996499999997	45.90229300000000	0.25926400000000	0.00000000000000	0.08109800000000	0.00000000000000	0.00000000000000	0.00000000000000	0.00000000000000	0.00000000000000	0.00000000000000	0.00000000000000	25.95767000000000	0.00000000000000	0.00000000000000	0.00000000000000	0.00000000000000	
